<?xml version="1.0" encoding="UTF-8" standalone="no"?>
<!DOCTYPE svg PUBLIC "-//W3C//DTD SVG 1.1//EN" "http://www.w3.org/Graphics/SVG/1.1/DTD/svg11.dtd">
<svg width="100%" height="100%" viewBox="0 0 1024 512" version="1.1" xmlns="http://www.w3.org/2000/svg" xmlns:xlink="http://www.w3.org/1999/xlink" xml:space="preserve" xmlns:serif="http://www.serif.com/" style="fill-rule:evenodd;clip-rule:evenodd;stroke-linejoin:round;stroke-miterlimit:2;">
    <g transform="matrix(1,0,0,1,-42.1176,-3.16575)">
        <path d="M352.871,132.414L352.871,48.834L420.189,6.575L487.5,48.862L487.5,48.869L487.512,48.861L554.07,90.629L554.117,90.6L554.297,90.711L621.094,132.628L688.044,90.6L688.223,90.711L755.367,132.845L755.367,132.908L805.224,164.187L821.978,153.669L839.073,164.401L839.073,185.877L822.339,196.381L822.339,343.453L822.153,343.571L721.894,406.478L721.894,448.499L688.046,469.732L654.21,448.499L654.21,406.485L621.08,385.699L587.959,406.481L587.959,448.499L554.117,469.732L520.301,448.499L520.301,406.499L487.512,385.925L487.512,469.498L420.189,511.756L352.871,469.498L352.871,385.924L286.26,427.716L286.08,427.604L151.972,343.453L151.972,259.413L85.009,217.377L85.009,132.859L152.327,90.6L219.297,132.637L286.262,90.6L352.871,132.414ZM486.799,385.478L438.523,355.185L420.193,343.686L353.585,385.475L353.585,469.068L420.189,510.855L486.799,469.068L486.799,385.478ZM420.189,469.732L386.353,448.499L386.353,406.032L420.189,384.805L454.057,406.032L454.057,448.499L420.189,469.732ZM587.238,406.933L557.865,425.363L554.117,427.716L554.116,427.715L554.115,427.716L553.985,427.635L553.936,427.606L549.584,424.875L520.995,406.935L520.995,448.049L554.117,468.832L587.238,448.049L587.238,406.933ZM688.046,427.716L688.045,427.715L688.044,427.716L687.87,427.606L669.479,416.065L654.924,406.933L654.924,448.049L688.046,468.832L721.18,448.049L721.18,406.926L688.046,427.716ZM387.061,448.049L420.189,468.832L453.31,448.049L453.31,406.483L420.189,385.699L387.061,406.483L387.061,448.049ZM955.907,427.716L955.727,427.606L888.589,385.471L888.589,300.953L955.907,258.694L1023.23,300.953L1023.23,385.471L1023.06,385.581L955.907,427.716ZM353.579,217.377L286.262,259.636L219.297,217.599L152.687,259.41L152.687,343.003L286.26,426.828L352.871,385.024L352.871,384.98L419.827,342.948L419.827,217.386L386.353,196.38L386.353,154.365L353.579,133.796L353.579,217.377ZM889.302,385.021L955.907,426.815L1022.52,385.021L1022.52,301.431L955.907,259.636L889.302,301.431L889.302,385.021ZM521.351,406.259L554.117,426.815L586.88,406.258L554.117,385.699L521.351,406.259ZM655.283,406.257L688.044,426.815L720.816,406.254L688.046,385.699L655.283,406.257ZM487.499,301.431L487.499,384.971L487.512,384.98L487.512,385.029L520.645,405.816L554.136,384.805L587.599,405.807L620.363,385.249L553.745,343.453L553.745,259.869L487.499,301.431ZM688.402,259.861L688.402,343.453L688.222,343.571L621.801,385.247L654.567,405.808L688.046,384.805L721.532,405.805L754.66,385.021L754.66,301.431L688.402,259.861ZM554.471,343.003L620.726,384.582L620.726,301.43L554.471,259.859L554.471,343.003ZM821.619,196.383L805.24,186.101L688.799,259.166L755.367,300.933L755.367,384.58L821.619,343.003L821.619,196.383ZM621.44,301.431L621.44,384.578L687.689,343.003L687.689,259.859L621.44,301.431ZM486.799,133.817L454.057,154.353L454.057,196.38L420.541,217.392L420.541,342.942L486.799,384.532L486.799,300.953L553.367,259.165L486.799,217.377L486.799,133.817ZM554.869,259.164L621.099,300.719L687.294,259.165L668.576,247.415L621.11,217.632L554.869,259.164ZM352.871,133.35L286.262,91.556L219.652,133.351L219.652,216.941L286.262,258.742L352.872,216.941L352.872,133.352L352.871,133.352L352.871,133.35ZM85.723,216.941L151.972,258.519L151.972,175.373L85.723,133.8L85.723,216.941ZM621.795,133.128L654.569,153.694L688.046,132.686L721.894,153.919L721.894,196.38L688.402,217.389L688.402,258.517L754.66,216.941L754.66,133.351L688.044,91.556L621.795,133.128ZM553.763,174.914L553.763,91.778L487.5,133.35L487.5,133.38L487.499,133.38L487.499,216.941L553.745,258.517L553.745,174.924L553.763,174.914ZM218.936,133.802L152.687,175.371L152.687,258.516L218.936,216.941L218.936,133.802ZM621.44,216.941L663.494,243.334L687.689,258.516L687.689,217.389L654.21,196.38L654.21,154.343L621.44,133.779L621.44,216.941ZM554.471,258.511L620.361,217.162L554.471,175.819L554.471,258.511ZM755.367,216.501L804.883,185.429L804.883,164.85L755.367,133.776L755.367,216.501ZM453.31,154.822L437.289,164.871L437.289,185.877L420.541,196.386L420.541,216.491L453.31,195.929L453.31,154.822ZM554.812,175.139L620.714,216.491L620.714,133.782L554.812,175.139ZM655.28,154.14L688.402,174.924L688.402,216.489L721.18,195.929L721.18,154.363L688.046,133.58L655.28,154.14ZM654.924,195.929L687.689,216.489L687.689,175.353L654.924,154.791L654.924,195.929ZM387.061,195.929L419.827,216.485L419.827,196.382L403.093,185.877L403.093,164.87L387.061,154.809L387.061,195.929ZM286.261,196.608L269.166,185.877L269.166,164.401L286.261,153.669L303.355,164.401L303.355,185.877L286.261,196.608ZM269.88,185.426L286.261,195.714L302.648,185.426L302.648,164.879L286.261,154.592L269.88,164.879L269.88,185.426ZM436.575,165.319L420.541,175.375L420.541,195.492L436.575,185.426L436.575,165.319ZM805.956,185.651L821.619,195.489L821.619,175.823L805.956,185.651ZM403.807,185.426L419.827,195.487L419.827,175.372L403.807,165.318L403.807,185.426ZM805.963,164.65L822.339,174.924L822.339,195.487L838.366,185.426L838.366,164.879L821.978,154.598L805.963,164.65ZM805.598,184.981L821.28,175.14L805.598,165.299L805.598,184.981ZM152.327,91.556L86.075,133.13L152.327,174.696L218.584,133.13L152.327,91.556ZM404.174,164.648L420.189,174.696L436.206,164.648L420.188,154.598L404.174,164.648ZM554.47,174.474L620.358,133.127L554.47,91.778L554.47,174.474ZM387.421,154.137L403.436,164.185L420.188,153.669L436.944,164.184L452.955,154.14L420.189,133.58L387.421,154.137ZM420.196,91.556L353.585,49.76L353.585,132.909L386.713,153.693L420.189,132.686L453.682,153.684L472.402,141.94L486.799,132.906L486.799,49.759L420.196,91.556ZM821.977,133.58L788.141,112.34L788.141,69.88L821.977,48.646L855.819,69.88L855.819,112.34L821.977,133.58ZM788.849,111.89L821.977,132.673L855.105,111.89L855.105,70.323L821.977,49.54L788.849,70.323L788.849,111.89ZM487.5,132.419L553.358,91.076L487.5,49.751L487.5,132.419ZM353.945,49.087L420.196,90.663L486.44,49.087L420.189,7.517L353.945,49.087Z" style="fill:white;fill-rule:nonzero;"/>
    </g>
</svg>
