<?xml version="1.0" encoding="UTF-8" standalone="no"?>
<!DOCTYPE svg PUBLIC "-//W3C//DTD SVG 1.1//EN" "http://www.w3.org/Graphics/SVG/1.1/DTD/svg11.dtd">
<svg width="100%" height="100%" viewBox="0 0 1280 1280" version="1.1" xmlns="http://www.w3.org/2000/svg" xmlns:xlink="http://www.w3.org/1999/xlink" xml:space="preserve" xmlns:serif="http://www.serif.com/" style="fill-rule:evenodd;clip-rule:evenodd;stroke-linejoin:round;stroke-miterlimit:2;">
    <path d="M740,1252.5L712.5,1280L823.5,1280L796,1252.5C780.9,1237.4 768.3,1225 768,1225C767.7,1225 755.1,1237.4 740,1252.5ZM100,1252.5L72.5,1280L183.5,1280L156,1252.5C140.9,1237.4 128.3,1225 128,1225C127.7,1225 115.1,1237.4 100,1252.5ZM0,1252.5L0,1280L55.5,1280L28,1252.5C12.9,1237.4 0.4,1225 0.3,1225C0.1,1225 0,1237.4 0,1252.5ZM484,1252.5L456.5,1280L567.5,1280L540,1252.5C524.9,1237.4 512.3,1225 512,1225C511.7,1225 499.1,1237.4 484,1252.5ZM612,1252.5L584.5,1280L695.5,1280L668,1252.5C652.9,1237.4 640.3,1225 640,1225C639.7,1225 627.1,1237.4 612,1252.5ZM356,1252.5L328.5,1280L439.5,1280L412,1252.5C396.9,1237.4 384.3,1225 384,1225C383.7,1225 371.1,1237.4 356,1252.5ZM228,1252.5L200.5,1280L311.5,1280L284,1252.5C268.9,1237.4 256.3,1225 256,1225C255.7,1225 243.1,1237.4 228,1252.5ZM1252,1252.5L1224.5,1280L1280,1280L1280,1252.5C1280,1237.4 1279.9,1225 1279.7,1225C1279.6,1225 1267.1,1237.4 1252,1252.5ZM1124,1252.5L1096.5,1280L1207.5,1280L1180,1252.5C1164.9,1237.4 1152.3,1225 1152,1225C1151.7,1225 1139.1,1237.4 1124,1252.5ZM868,1252.5L840.5,1280L951.5,1280L924,1252.5C908.9,1237.4 896.3,1225 896,1225C895.7,1225 883.1,1237.4 868,1252.5ZM996,1252.5L968.5,1280L1079.5,1280L1052,1252.5C1036.9,1237.4 1024.3,1225 1024,1225C1023.7,1225 1011.1,1237.4 996,1252.5ZM1061.2,1189.3L1035,1215.6L1061.5,1242L1088,1268.5L1114.5,1242L1141,1215.6L1114.8,1189.3C1100.3,1174.8 1088.3,1163 1088,1163C1087.7,1163 1075.7,1174.8 1061.2,1189.3ZM677.2,1189.3L651,1215.6L677.5,1242L704,1268.5L730.5,1242L757,1215.6L730.8,1189.3C716.3,1174.8 704.3,1163 704,1163C703.7,1163 691.7,1174.8 677.2,1189.3ZM805.2,1189.3L779,1215.6L805.5,1242L832,1268.5L858.5,1242L885,1215.6L858.8,1189.3C844.3,1174.8 832.3,1163 832,1163C831.7,1163 819.7,1174.8 805.2,1189.3ZM933.2,1189.3L907,1215.6L933.5,1242L960,1268.5L986.5,1242L1013,1215.6L986.8,1189.3C972.3,1174.8 960.3,1163 960,1163C959.7,1163 947.7,1174.8 933.2,1189.3ZM37.2,1189.3L11,1215.6L37.5,1242L64,1268.5L90.5,1242L117,1215.6L90.8,1189.3C76.3,1174.8 64.3,1163 64,1163C63.7,1163 51.7,1174.8 37.2,1189.3ZM421.2,1189.3L395,1215.6L421.5,1242L448,1268.5L474.5,1242L501,1215.6L474.8,1189.3C460.3,1174.8 448.3,1163 448,1163C447.7,1163 435.7,1174.8 421.2,1189.3ZM549.2,1189.3L523,1215.6L549.5,1242L576,1268.5L602.5,1242L629,1215.6L602.8,1189.3C588.3,1174.8 576.3,1163 576,1163C575.7,1163 563.7,1174.8 549.2,1189.3ZM1189.2,1189.3L1163,1215.6L1189.5,1242L1216,1268.5L1242.5,1242L1269,1215.6L1242.8,1189.3C1228.3,1174.8 1216.3,1163 1216,1163C1215.7,1163 1203.7,1174.8 1189.2,1189.3ZM165.2,1189.3L139,1215.6L165.5,1242L192,1268.5L218.5,1242L245,1215.6L218.8,1189.3C204.3,1174.8 192.3,1163 192,1163C191.7,1163 179.7,1174.8 165.2,1189.3ZM293.2,1189.3L267,1215.6L293.5,1242L320,1268.5L346.5,1242L373,1215.6L346.8,1189.3C332.3,1174.8 320.3,1163 320,1163C319.7,1163 307.7,1174.8 293.2,1189.3ZM870.5,1127L845.5,1152L896,1202.5L946.5,1152L921.5,1127C907.8,1113.3 896.3,1102 896,1102C895.7,1102 884.2,1113.3 870.5,1127ZM1254.5,1127L1229.5,1152L1280,1202.5L1280,1152.2C1280,1124.6 1279.9,1102 1279.7,1102C1279.6,1102 1268.2,1113.3 1254.5,1127ZM614.5,1127L589.5,1152L640,1202.5L690.5,1152L665.5,1127C651.8,1113.3 640.3,1102 640,1102C639.7,1102 628.2,1113.3 614.5,1127ZM998.5,1127L973.5,1152L1024,1202.5L1074.5,1152L1049.5,1127C1035.8,1113.3 1024.3,1102 1024,1102C1023.7,1102 1012.2,1113.3 998.5,1127ZM102.5,1127L77.5,1152L128,1202.5L178.5,1152L153.5,1127C139.8,1113.3 128.3,1102 128,1102C127.7,1102 116.2,1113.3 102.5,1127ZM230.5,1127L205.5,1152L256,1202.5L306.5,1152L281.5,1127C267.8,1113.3 256.3,1102 256,1102C255.7,1102 244.2,1113.3 230.5,1127ZM0,1101.5L0,1202.5L25.2,1177.2L50.5,1152L25.2,1126.8L0,1101.5ZM358.5,1127L333.5,1152L384,1202.5L434.5,1152L409.5,1127C395.8,1113.3 384.3,1102 384,1102C383.7,1102 372.2,1113.3 358.5,1127ZM486.5,1127L461.5,1152L512,1202.5L562.5,1152L537.5,1127C523.8,1113.3 512.3,1102 512,1102C511.7,1102 500.2,1113.3 486.5,1127ZM1126.5,1127L1101.5,1152L1152,1202.5L1202.5,1152L1177.5,1127C1163.8,1113.3 1152.3,1102 1152,1102C1151.7,1102 1140.2,1113.3 1126.5,1127ZM742.5,1127L717.5,1152L768,1202.5L818.5,1152L793.5,1127C779.8,1113.3 768.3,1102 768,1102C767.7,1102 756.2,1113.3 742.5,1127ZM935.5,1064L911.5,1088L960,1136.5L1008.5,1088L984.5,1064C971.3,1050.8 960.3,1040 960,1040C959.7,1040 948.7,1050.8 935.5,1064ZM295.5,1064L271.5,1088L320,1136.5L368.5,1088L344.5,1064C331.3,1050.8 320.3,1040 320,1040C319.7,1040 308.7,1050.8 295.5,1064ZM167.5,1064L143.5,1088L192,1136.5L240.5,1088L216.5,1064C203.3,1050.8 192.3,1040 192,1040C191.7,1040 180.7,1050.8 167.5,1064ZM1063.5,1064L1039.5,1088L1088,1136.5L1136.5,1088L1112.5,1064C1099.3,1050.8 1088.3,1040 1088,1040C1087.7,1040 1076.7,1050.8 1063.5,1064ZM39.5,1064L15.5,1088L64,1136.5L112.5,1088L88.5,1064C75.3,1050.8 64.3,1040 64,1040C63.7,1040 52.7,1050.8 39.5,1064ZM1191.5,1064L1167.5,1088L1216,1136.5L1264.5,1088L1240.5,1064C1227.3,1050.8 1216.3,1040 1216,1040C1215.7,1040 1204.7,1050.8 1191.5,1064ZM423.5,1064L399.5,1088L448,1136.5L496.5,1088L472.5,1064C459.3,1050.8 448.3,1040 448,1040C447.7,1040 436.7,1050.8 423.5,1064ZM551.5,1064L527.5,1088L576,1136.5L624.5,1088L600.5,1064C587.3,1050.8 576.3,1040 576,1040C575.7,1040 564.7,1050.8 551.5,1064ZM679.5,1064L655.5,1088L704,1136.5L752.5,1088L728.5,1064C715.3,1050.8 704.3,1040 704,1040C703.7,1040 692.7,1050.8 679.5,1064ZM807.5,1064L783.5,1088L832,1136.5L880.5,1088L856.5,1064C843.3,1050.8 832.3,1040 832,1040C831.7,1040 820.7,1050.8 807.5,1064ZM616.5,1001L593.5,1024L640,1070.5L686.5,1024L663.5,1001C650.9,988.4 640.3,978 640,978C639.7,978 629.1,988.4 616.5,1001ZM488.5,1001L465.5,1024L512,1070.5L558.5,1024L535.5,1001C522.9,988.4 512.3,978 512,978C511.7,978 501.1,988.4 488.5,1001ZM232.5,1001L209.5,1024L256,1070.5L302.5,1024L279.5,1001C266.9,988.4 256.3,978 256,978C255.7,978 245.1,988.4 232.5,1001ZM360.5,1001L337.5,1024L384,1070.5L430.5,1024L407.5,1001C394.9,988.4 384.3,978 384,978C383.7,978 373.1,988.4 360.5,1001ZM0,977.5L0,1070.5L23.2,1047.2L46.5,1024L23.2,1000.8L0,977.5ZM872.5,1001L849.5,1024L896,1070.5L942.5,1024L919.5,1001C906.9,988.4 896.3,978 896,978C895.7,978 885.1,988.4 872.5,1001ZM1256.5,1001L1233.5,1024L1280,1070.5L1280,1024.2C1280,998.8 1279.9,978 1279.7,978C1279.6,978 1269.1,988.4 1256.5,1001ZM1000.5,1001L977.5,1024L1024,1070.5L1070.5,1024L1047.5,1001C1034.9,988.4 1024.3,978 1024,978C1023.7,978 1013.1,988.4 1000.5,1001ZM104.5,1001L81.5,1024L128,1070.5L174.5,1024L151.5,1001C138.9,988.4 128.3,978 128,978C127.7,978 117.1,988.4 104.5,1001ZM1128.5,1001L1105.5,1024L1152,1070.5L1198.5,1024L1175.5,1001C1162.9,988.4 1152.3,978 1152,978C1151.7,978 1141.1,988.4 1128.5,1001ZM744.5,1001L721.5,1024L768,1070.5L814.5,1024L791.5,1001C778.9,988.4 768.3,978 768,978C767.7,978 757.1,988.4 744.5,1001ZM682,938.5L660.5,960L704,1003.5L747.5,960L726,938.5C714.2,926.7 704.3,917 704,917C703.7,917 693.8,926.7 682,938.5ZM426,938.5L404.5,960L448,1003.5L491.5,960L470,938.5C458.2,926.7 448.3,917 448,917C447.7,917 437.8,926.7 426,938.5ZM1066,938.5L1044.5,960L1088,1003.5L1131.5,960L1110,938.5C1098.2,926.7 1088.3,917 1088,917C1087.7,917 1077.8,926.7 1066,938.5ZM1194,938.5L1172.5,960L1216,1003.5L1259.5,960L1238,938.5C1226.2,926.7 1216.3,917 1216,917C1215.7,917 1205.8,926.7 1194,938.5ZM810,938.5L788.5,960L832,1003.5L875.5,960L854,938.5C842.2,926.7 832.3,917 832,917C831.7,917 821.8,926.7 810,938.5ZM938,938.5L916.5,960L960,1003.5L1003.5,960L982,938.5C970.2,926.7 960.3,917 960,917C959.7,917 949.8,926.7 938,938.5ZM170,938.5L148.5,960L192,1003.5L235.5,960L214,938.5C202.2,926.7 192.3,917 192,917C191.7,917 181.8,926.7 170,938.5ZM554,938.5L532.5,960L576,1003.5L619.5,960L598,938.5C586.2,926.7 576.3,917 576,917C575.7,917 565.8,926.7 554,938.5ZM298,938.5L276.5,960L320,1003.5L363.5,960L342,938.5C330.2,926.7 320.3,917 320,917C319.7,917 309.8,926.7 298,938.5ZM42,938.5L20.5,960L64,1003.5L107.5,960L86,938.5C74.2,926.7 64.3,917 64,917C63.7,917 53.8,926.7 42,938.5ZM619,875.5L598.5,896L640,937.5L681.5,896L661,875.5C649.7,864.2 640.3,855 640,855C639.7,855 630.3,864.2 619,875.5ZM747,875.5L726.5,896L768,937.5L809.5,896L789,875.5C777.7,864.2 768.3,855 768,855C767.7,855 758.3,864.2 747,875.5ZM235,875.5L214.5,896L256,937.5L297.5,896L277,875.5C265.7,864.2 256.3,855 256,855C255.7,855 246.3,864.2 235,875.5ZM875,875.5L854.5,896L896,937.5L937.5,896L917,875.5C905.7,864.2 896.3,855 896,855C895.7,855 886.3,864.2 875,875.5ZM0,854.5L0,937.5L20.7,916.7L41.5,896L20.7,875.3L0,854.5ZM107,875.5L86.5,896L128,937.5L169.5,896L149,875.5C137.7,864.2 128.3,855 128,855C127.7,855 118.3,864.2 107,875.5ZM363,875.5L342.5,896L384,937.5L425.5,896L405,875.5C393.7,864.2 384.3,855 384,855C383.7,855 374.3,864.2 363,875.5ZM491,875.5L470.5,896L512,937.5L553.5,896L533,875.5C521.7,864.2 512.3,855 512,855C511.7,855 502.3,864.2 491,875.5ZM1003,875.5L982.5,896L1024,937.5L1065.5,896L1045,875.5C1033.7,864.2 1024.3,855 1024,855C1023.7,855 1014.3,864.2 1003,875.5ZM1131,875.5L1110.5,896L1152,937.5L1193.5,896L1173,875.5C1161.7,864.2 1152.3,855 1152,855C1151.7,855 1142.3,864.2 1131,875.5ZM1259,875.5L1238.5,896L1280,937.5L1280,896.2C1280,873.6 1279.9,855 1279.7,855C1279.6,855 1270.3,864.2 1259,875.5ZM44,812.5L24.5,832L64,871.5L103.5,832L84,812.5C73.3,801.8 64.3,793 64,793C63.7,793 54.7,801.8 44,812.5ZM1196,812.5L1176.5,832L1216,871.5L1255.5,832L1236,812.5C1225.3,801.8 1216.3,793 1216,793C1215.7,793 1206.7,801.8 1196,812.5ZM684,812.5L664.5,832L704,871.5L743.5,832L724,812.5C713.3,801.8 704.3,793 704,793C703.7,793 694.7,801.8 684,812.5ZM940,812.5L920.5,832L960,871.5L999.5,832L980,812.5C969.3,801.8 960.3,793 960,793C959.7,793 950.7,801.8 940,812.5ZM428,812.5L408.5,832L448,871.5L487.5,832L468,812.5C457.3,801.8 448.3,793 448,793C447.7,793 438.7,801.8 428,812.5ZM1068,812.5L1048.5,832L1088,871.5L1127.5,832L1108,812.5C1097.3,801.8 1088.3,793 1088,793C1087.7,793 1078.7,801.8 1068,812.5ZM556,812.5L536.5,832L576,871.5L615.5,832L596,812.5C585.3,801.8 576.3,793 576,793C575.7,793 566.7,801.8 556,812.5ZM812,812.5L792.5,832L832,871.5L871.5,832L852,812.5C841.3,801.8 832.3,793 832,793C831.7,793 822.7,801.8 812,812.5ZM172,812.5L152.5,832L192,871.5L231.5,832L212,812.5C201.3,801.8 192.3,793 192,793C191.7,793 182.7,801.8 172,812.5ZM300,812.5L280.5,832L320,871.5L359.5,832L340,812.5C329.3,801.8 320.3,793 320,793C319.7,793 310.7,801.8 300,812.5ZM749.5,750L731.5,768L768,804.5L804.5,768L786.5,750C776.6,740.1 768.3,732 768,732C767.7,732 759.4,740.1 749.5,750ZM1005.5,750L987.5,768L1024,804.5L1060.5,768L1042.5,750C1032.6,740.1 1024.3,732 1024,732C1023.7,732 1015.4,740.1 1005.5,750ZM1133.5,750L1115.5,768L1152,804.5L1188.5,768L1170.5,750C1160.6,740.1 1152.3,732 1152,732C1151.7,732 1143.4,740.1 1133.5,750ZM109.5,750L91.5,768L128,804.5L164.5,768L146.5,750C136.6,740.1 128.3,732 128,732C127.7,732 119.4,740.1 109.5,750ZM237.5,750L219.5,768L256,804.5L292.5,768L274.5,750C264.6,740.1 256.3,732 256,732C255.7,732 247.4,740.1 237.5,750ZM877.5,750L859.5,768L896,804.5L932.5,768L914.5,750C904.6,740.1 896.3,732 896,732C895.7,732 887.4,740.1 877.5,750ZM493.5,750L475.5,768L512,804.5L548.5,768L530.5,750C520.6,740.1 512.3,732 512,732C511.7,732 503.4,740.1 493.5,750ZM365.5,750L347.5,768L384,804.5L420.5,768L402.5,750C392.6,740.1 384.3,732 384,732C383.7,732 375.4,740.1 365.5,750ZM1261.5,750L1243.5,768L1280,804.5L1280,768.2C1280,748.3 1279.9,732 1279.7,732C1279.6,732 1271.4,740.1 1261.5,750ZM0,731.5L0,804.5L18.2,786.2L36.5,768L18.2,749.8L0,731.5ZM621.5,750L603.5,768L640,804.5L676.5,768L658.5,750C648.6,740.1 640.3,732 640,732C639.7,732 631.4,740.1 621.5,750ZM430.5,687L413.5,704L448,738.5L482.5,704L465.5,687C456.2,677.7 448.3,670 448,670C447.7,670 439.8,677.7 430.5,687ZM46.5,687L29.5,704L64,738.5L98.5,704L81.5,687C72.2,677.7 64.3,670 64,670C63.7,670 55.8,677.7 46.5,687ZM174.5,687L157.5,704L192,738.5L226.5,704L209.5,687C200.2,677.7 192.3,670 192,670C191.7,670 183.8,677.7 174.5,687ZM942.5,687L925.5,704L960,738.5L994.5,704L977.5,687C968.2,677.7 960.3,670 960,670C959.7,670 951.8,677.7 942.5,687ZM302.5,687L285.5,704L320,738.5L354.5,704L337.5,687C328.2,677.7 320.3,670 320,670C319.7,670 311.8,677.7 302.5,687ZM814.5,687L797.5,704L832,738.5L866.5,704L849.5,687C840.2,677.7 832.3,670 832,670C831.7,670 823.8,677.7 814.5,687ZM1070.5,687L1053.5,704L1088,738.5L1122.5,704L1105.5,687C1096.2,677.7 1088.3,670 1088,670C1087.7,670 1079.8,677.7 1070.5,687ZM1198.5,687L1181.5,704L1216,738.5L1250.5,704L1233.5,687C1224.2,677.7 1216.3,670 1216,670C1215.7,670 1207.8,677.7 1198.5,687ZM686.5,687L669.5,704L704,738.5L738.5,704L721.5,687C712.2,677.7 704.3,670 704,670C703.7,670 695.8,677.7 686.5,687ZM558.5,687L541.5,704L576,738.5L610.5,704L593.5,687C584.2,677.7 576.3,670 576,670C575.7,670 567.8,677.7 558.5,687ZM239.5,624L223.5,640L256,672.5L288.5,640L272.5,624C263.7,615.2 256.3,608 256,608C255.7,608 248.3,615.2 239.5,624ZM0,607.5L0,672.5L16.2,656.2L32.5,640L16.2,623.8L0,607.5ZM623.5,624L607.5,640L640,672.5L672.5,640L656.5,624C647.7,615.2 640.3,608 640,608C639.7,608 632.3,615.2 623.5,624ZM751.5,624L735.5,640L768,672.5L800.5,640L784.5,624C775.7,615.2 768.3,608 768,608C767.7,608 760.3,615.2 751.5,624ZM879.5,624L863.5,640L896,672.5L928.5,640L912.5,624C903.7,615.2 896.3,608 896,608C895.7,608 888.3,615.2 879.5,624ZM1007.5,624L991.5,640L1024,672.5L1056.5,640L1040.5,624C1031.7,615.2 1024.3,608 1024,608C1023.7,608 1016.3,615.2 1007.5,624ZM1263.5,624L1247.5,640L1280,672.5L1280,640.2C1280,622.5 1279.9,608 1279.7,608C1279.6,608 1272.3,615.2 1263.5,624ZM495.5,624L479.5,640L512,672.5L544.5,640L528.5,624C519.7,615.2 512.3,608 512,608C511.7,608 504.3,615.2 495.5,624ZM111.5,624L95.5,640L128,672.5L160.5,640L144.5,624C135.7,615.2 128.3,608 128,608C127.7,608 120.3,615.2 111.5,624ZM1135.5,624L1119.5,640L1152,672.5L1184.5,640L1168.5,624C1159.7,615.2 1152.3,608 1152,608C1151.7,608 1144.3,615.2 1135.5,624ZM367.5,624L351.5,640L384,672.5L416.5,640L400.5,624C391.7,615.2 384.3,608 384,608C383.7,608 376.3,615.2 367.5,624ZM177,561.5L162.5,576L192,605.5L221.5,576L207,561.5C199,553.5 192.3,547 192,547C191.7,547 185,553.5 177,561.5ZM433,561.5L418.5,576L448,605.5L477.5,576L463,561.5C455,553.5 448.3,547 448,547C447.7,547 441,553.5 433,561.5ZM305,561.5L290.5,576L320,605.5L349.5,576L335,561.5C327,553.5 320.3,547 320,547C319.7,547 313,553.5 305,561.5ZM1073,561.5L1058.5,576L1088,605.5L1117.5,576L1103,561.5C1095,553.5 1088.3,547 1088,547C1087.7,547 1081,553.5 1073,561.5ZM945,561.5L930.5,576L960,605.5L989.5,576L975,561.5C967,553.5 960.3,547 960,547C959.7,547 953,553.5 945,561.5ZM1201,561.5L1186.5,576L1216,605.5L1245.5,576L1231,561.5C1223,553.5 1216.3,547 1216,547C1215.7,547 1209,553.5 1201,561.5ZM49,561.5L34.5,576L64,605.5L93.5,576L79,561.5C71,553.5 64.3,547 64,547C63.7,547 57,553.5 49,561.5ZM817,561.5L802.5,576L832,605.5L861.5,576L847,561.5C839,553.5 832.3,547 832,547C831.7,547 825,553.5 817,561.5ZM561,561.5L546.5,576L576,605.5L605.5,576L591,561.5C583,553.5 576.3,547 576,547C575.7,547 569,553.5 561,561.5ZM689,561.5L674.5,576L704,605.5L733.5,576L719,561.5C711,553.5 704.3,547 704,547C703.7,547 697,553.5 689,561.5ZM754,498.5L740.5,512L768,539.5L795.5,512L782,498.5C774.6,491.1 768.3,485 768,485C767.7,485 761.4,491.1 754,498.5ZM882,498.5L868.5,512L896,539.5L923.5,512L910,498.5C902.6,491.1 896.3,485 896,485C895.7,485 889.4,491.1 882,498.5ZM1010,498.5L996.5,512L1024,539.5L1051.5,512L1038,498.5C1030.6,491.1 1024.3,485 1024,485C1023.7,485 1017.4,491.1 1010,498.5ZM1138,498.5L1124.5,512L1152,539.5L1179.5,512L1166,498.5C1158.6,491.1 1152.3,485 1152,485C1151.7,485 1145.4,491.1 1138,498.5ZM114,498.5L100.5,512L128,539.5L155.5,512L142,498.5C134.6,491.1 128.3,485 128,485C127.7,485 121.4,491.1 114,498.5ZM242,498.5L228.5,512L256,539.5L283.5,512L270,498.5C262.6,491.1 256.3,485 256,485C255.7,485 249.4,491.1 242,498.5ZM370,498.5L356.5,512L384,539.5L411.5,512L398,498.5C390.6,491.1 384.3,485 384,485C383.7,485 377.4,491.1 370,498.5ZM1266,498.5L1252.5,512L1280,539.5L1280,512.2C1280,497.3 1279.9,485 1279.7,485C1279.6,485 1273.4,491.1 1266,498.5ZM498,498.5L484.5,512L512,539.5L539.5,512L526,498.5C518.6,491.1 512.3,485 512,485C511.7,485 505.4,491.1 498,498.5ZM626,498.5L612.5,512L640,539.5L667.5,512L654,498.5C646.6,491.1 640.3,485 640,485C639.7,485 633.4,491.1 626,498.5ZM0,484.5L0,539.5L13.7,525.7L27.5,512L13.7,498.3L0,484.5ZM947,435.5L934.5,448L960,473.5L985.5,448L973,435.5C966.1,428.6 960.3,423 960,423C959.7,423 953.9,428.6 947,435.5ZM563,435.5L550.5,448L576,473.5L601.5,448L589,435.5C582.1,428.6 576.3,423 576,423C575.7,423 569.9,428.6 563,435.5ZM819,435.5L806.5,448L832,473.5L857.5,448L845,435.5C838.1,428.6 832.3,423 832,423C831.7,423 825.9,428.6 819,435.5ZM1203,435.5L1190.5,448L1216,473.5L1241.5,448L1229,435.5C1222.1,428.6 1216.3,423 1216,423C1215.7,423 1209.9,428.6 1203,435.5ZM691,435.5L678.5,448L704,473.5L729.5,448L717,435.5C710.1,428.6 704.3,423 704,423C703.7,423 697.9,428.6 691,435.5ZM435,435.5L422.5,448L448,473.5L473.5,448L461,435.5C454.1,428.6 448.3,423 448,423C447.7,423 441.9,428.6 435,435.5ZM307,435.5L294.5,448L320,473.5L345.5,448L333,435.5C326.1,428.6 320.3,423 320,423C319.7,423 313.9,428.6 307,435.5ZM1075,435.5L1062.5,448L1088,473.5L1113.5,448L1101,435.5C1094.1,428.6 1088.3,423 1088,423C1087.7,423 1081.9,428.6 1075,435.5ZM51,435.5L38.5,448L64,473.5L89.5,448L77,435.5C70.1,428.6 64.3,423 64,423C63.7,423 57.9,428.6 51,435.5ZM179,435.5L166.5,448L192,473.5L217.5,448L205,435.5C198.1,428.6 192.3,423 192,423C191.7,423 185.9,428.6 179,435.5ZM756,372.5L744.5,384L768,407.5L791.5,384L780,372.5C773.7,366.2 768.3,361 768,361C767.7,361 762.3,366.2 756,372.5ZM884,372.5L872.5,384L896,407.5L919.5,384L908,372.5C901.7,366.2 896.3,361 896,361C895.7,361 890.3,366.2 884,372.5ZM1140,372.5L1128.5,384L1152,407.5L1175.5,384L1164,372.5C1157.7,366.2 1152.3,361 1152,361C1151.7,361 1146.3,366.2 1140,372.5ZM116,372.5L104.5,384L128,407.5L151.5,384L140,372.5C133.7,366.2 128.3,361 128,361C127.7,361 122.3,366.2 116,372.5ZM244,372.5L232.5,384L256,407.5L279.5,384L268,372.5C261.7,366.2 256.3,361 256,361C255.7,361 250.3,366.2 244,372.5ZM1012,372.5L1000.5,384L1024,407.5L1047.5,384L1036,372.5C1029.7,366.2 1024.3,361 1024,361C1023.7,361 1018.3,366.2 1012,372.5ZM372,372.5L360.5,384L384,407.5L407.5,384L396,372.5C389.7,366.2 384.3,361 384,361C383.7,361 378.3,366.2 372,372.5ZM500,372.5L488.5,384L512,407.5L535.5,384L524,372.5C517.7,366.2 512.3,361 512,361C511.7,361 506.3,366.2 500,372.5ZM628,372.5L616.5,384L640,407.5L663.5,384L652,372.5C645.7,366.2 640.3,361 640,361C639.7,361 634.3,366.2 628,372.5ZM0,383.3C0,395.8 0.3,406 0.8,406C1.2,406 6.5,401 12.5,395L23.5,384L0,360.5L0,383.3ZM1279.5,361L1256.5,384L1267.7,395.2C1273.9,401.4 1279.2,406.2 1279.5,405.9C1279.8,405.5 1279.9,395.3 1279.8,383.1L1279.5,361ZM437.5,310L427.5,320L448,340.5L468.5,320L458.5,310C453,304.5 448.3,300 448,300C447.7,300 443,304.5 437.5,310ZM693.5,310L683.5,320L704,340.5L724.5,320L714.5,310C709,304.5 704.3,300 704,300C703.7,300 699,304.5 693.5,310ZM1205.5,310L1195.5,320L1216,340.5L1236.5,320L1226.5,310C1221,304.5 1216.3,300 1216,300C1215.7,300 1211,304.5 1205.5,310ZM1077.5,310L1067.5,320L1088,340.5L1108.5,320L1098.5,310C1093,304.5 1088.3,300 1088,300C1087.7,300 1083,304.5 1077.5,310ZM949.5,310L939.5,320L960,340.5L980.5,320L970.5,310C965,304.5 960.3,300 960,300C959.7,300 955,304.5 949.5,310ZM821.5,310L811.5,320L832,340.5L852.5,320L842.5,310C837,304.5 832.3,300 832,300C831.7,300 827,304.5 821.5,310ZM565.5,310L555.5,320L576,340.5L596.5,320L586.5,310C581,304.5 576.3,300 576,300C575.7,300 571,304.5 565.5,310ZM53.5,310L43.5,320L64,340.5L84.5,320L74.5,310C69,304.5 64.3,300 64,300C63.7,300 59,304.5 53.5,310ZM181.5,310L171.5,320L192,340.5L212.5,320L202.5,310C197,304.5 192.3,300 192,300C191.7,300 187,304.5 181.5,310ZM309.5,310L299.5,320L320,340.5L340.5,320L330.5,310C325,304.5 320.3,300 320,300C319.7,300 315,304.5 309.5,310ZM246.5,247L237.5,256L256,274.5L274.5,256L265.5,247C260.6,242.1 256.3,238 256,238C255.7,238 251.4,242.1 246.5,247ZM502.5,247L493.5,256L512,274.5L530.5,256L521.5,247C516.6,242.1 512.3,238 512,238C511.7,238 507.4,242.1 502.5,247ZM630.5,247L621.5,256L640,274.5L658.5,256L649.5,247C644.6,242.1 640.3,238 640,238C639.7,238 635.4,242.1 630.5,247ZM758.5,247L749.5,256L768,274.5L786.5,256L777.5,247C772.6,242.1 768.3,238 768,238C767.7,238 763.4,242.1 758.5,247ZM1014.5,247L1005.5,256L1024,274.5L1042.5,256L1033.5,247C1028.6,242.1 1024.3,238 1024,238C1023.7,238 1019.4,242.1 1014.5,247ZM374.5,247L365.5,256L384,274.5L402.5,256L393.5,247C388.6,242.1 384.3,238 384,238C383.7,238 379.4,242.1 374.5,247ZM118.5,247L109.5,256L128,274.5L146.5,256L137.5,247C132.6,242.1 128.3,238 128,238C127.7,238 123.4,242.1 118.5,247ZM1142.5,247L1133.5,256L1152,274.5L1170.5,256L1161.5,247C1156.6,242.1 1152.3,238 1152,238C1151.7,238 1147.4,242.1 1142.5,247ZM0,237.5L0,274.5L9.2,265.2L18.5,256L9.2,246.8L0,237.5ZM886.5,247L877.5,256L896,274.5L914.5,256L905.5,247C900.6,242.1 896.3,238 896,238C895.7,238 891.4,242.1 886.5,247ZM1270.5,247L1261.5,256L1280,274.5L1280,256.2C1280,246.2 1279.9,238 1279.7,238C1279.6,238 1275.4,242.1 1270.5,247ZM1207.5,184L1199.5,192L1216,208.5L1232.5,192L1224.5,184C1220.1,179.6 1216.3,176 1216,176C1215.7,176 1211.9,179.6 1207.5,184ZM183.5,184L175.5,192L192,208.5L208.5,192L200.5,184C196.1,179.6 192.3,176 192,176C191.7,176 187.9,179.6 183.5,184ZM55.5,184L47.5,192L64,208.5L80.5,192L72.5,184C68.1,179.6 64.3,176 64,176C63.7,176 59.9,179.6 55.5,184ZM1079.5,184L1071.5,192L1088,208.5L1104.5,192L1096.5,184C1092.1,179.6 1088.3,176 1088,176C1087.7,176 1083.9,179.6 1079.5,184ZM439.5,184L431.5,192L448,208.5L464.5,192L456.5,184C452.1,179.6 448.3,176 448,176C447.7,176 443.9,179.6 439.5,184ZM951.5,184L943.5,192L960,208.5L976.5,192L968.5,184C964.1,179.6 960.3,176 960,176C959.7,176 955.9,179.6 951.5,184ZM823.5,184L815.5,192L832,208.5L848.5,192L840.5,184C836.1,179.6 832.3,176 832,176C831.7,176 827.9,179.6 823.5,184ZM695.5,184L687.5,192L704,208.5L720.5,192L712.5,184C708.1,179.6 704.3,176 704,176C703.7,176 699.9,179.6 695.5,184ZM567.5,184L559.5,192L576,208.5L592.5,192L584.5,184C580.1,179.6 576.3,176 576,176C575.7,176 571.9,179.6 567.5,184ZM311.5,184L303.5,192L320,208.5L336.5,192L328.5,184C324.1,179.6 320.3,176 320,176C319.7,176 315.9,179.6 311.5,184ZM889,121.5L882.5,128L896,141.5L909.5,128L903,121.5C899.5,117.9 896.3,115 896,115C895.7,115 892.5,117.9 889,121.5ZM1017,121.5L1010.5,128L1024,141.5L1037.5,128L1031,121.5C1027.5,117.9 1024.3,115 1024,115C1023.7,115 1020.5,117.9 1017,121.5ZM1145,121.5L1138.5,128L1152,141.5L1165.5,128L1159,121.5C1155.5,117.9 1152.3,115 1152,115C1151.7,115 1148.5,117.9 1145,121.5ZM249,121.5L242.5,128L256,141.5L269.5,128L263,121.5C259.5,117.9 256.3,115 256,115C255.7,115 252.5,117.9 249,121.5ZM377,121.5L370.5,128L384,141.5L397.5,128L391,121.5C387.5,117.9 384.3,115 384,115C383.7,115 380.5,117.9 377,121.5ZM505,121.5L498.5,128L512,141.5L525.5,128L519,121.5C515.5,117.9 512.3,115 512,115C511.7,115 508.5,117.9 505,121.5ZM633,121.5L626.5,128L640,141.5L653.5,128L647,121.5C643.5,117.9 640.3,115 640,115C639.7,115 636.5,117.9 633,121.5ZM121,121.5L114.5,128L128,141.5L141.5,128L135,121.5C131.5,117.9 128.3,115 128,115C127.7,115 124.5,117.9 121,121.5ZM761,121.5L754.5,128L768,141.5L781.5,128L775,121.5C771.5,117.9 768.3,115 768,115C767.7,115 764.5,117.9 761,121.5ZM0,114.5L0,141.5L6.7,134.7L13.5,128L6.7,121.3L0,114.5ZM1273,121.5L1266.5,128L1280,141.5L1280,128.2C1280,121 1279.9,115 1279.7,115C1279.6,115 1276.5,117.9 1273,121.5ZM698,58.5L692.5,64L704,75.5L715.5,64L710,58.5C707,55.5 704.3,53 704,53C703.7,53 701,55.5 698,58.5ZM570,58.5L564.5,64L576,75.5L587.5,64L582,58.5C579,55.5 576.3,53 576,53C575.7,53 573,55.5 570,58.5ZM442,58.5L436.5,64L448,75.5L459.5,64L454,58.5C451,55.5 448.3,53 448,53C447.7,53 445,55.5 442,58.5ZM314,58.5L308.5,64L320,75.5L331.5,64L326,58.5C323,55.5 320.3,53 320,53C319.7,53 317,55.5 314,58.5ZM58,58.5L52.5,64L64,75.5L75.5,64L70,58.5C67,55.5 64.3,53 64,53C63.7,53 61,55.5 58,58.5ZM186,58.5L180.5,64L192,75.5L203.5,64L198,58.5C195,55.5 192.3,53 192,53C191.7,53 189,55.5 186,58.5ZM826,58.5L820.5,64L832,75.5L843.5,64L838,58.5C835,55.5 832.3,53 832,53C831.7,53 829,55.5 826,58.5ZM1210,58.5L1204.5,64L1216,75.5L1227.5,64L1222,58.5C1219,55.5 1216.3,53 1216,53C1215.7,53 1213,55.5 1210,58.5ZM1082,58.5L1076.5,64L1088,75.5L1099.5,64L1094,58.5C1091,55.5 1088.3,53 1088,53C1087.7,53 1085,55.5 1082,58.5ZM954,58.5L948.5,64L960,75.5L971.5,64L966,58.5C963,55.5 960.3,53 960,53C959.7,53 957,55.5 954,58.5ZM1147.3,4.7L1152,9.5L1156.7,4.7L1161.5,0L1142.5,0L1147.3,4.7ZM1019.3,4.7L1024,9.5L1028.7,4.7L1033.5,0L1014.5,0L1019.3,4.7ZM891.3,4.7L896,9.5L900.7,4.7L905.5,0L886.5,0L891.3,4.7ZM763.3,4.7L768,9.5L772.7,4.7L777.5,0L758.5,0L763.3,4.7ZM635.3,4.7L640,9.5L644.7,4.7L649.5,0L630.5,0L635.3,4.7ZM507.3,4.7L512,9.5L516.7,4.7L521.5,0L502.5,0L507.3,4.7ZM379.3,4.7L384,9.5L388.7,4.7L393.5,0L374.5,0L379.3,4.7ZM251.3,4.7L256,9.5L260.7,4.7L265.5,0L246.5,0L251.3,4.7ZM123.3,4.7L128,9.5L132.7,4.7L137.5,0L118.5,0L123.3,4.7ZM0,0L0,9.4L4.5,5C7,2.6 9,0.5 9,0.3C9,0.1 7,0 4.5,0L0,0ZM1275,4.5C1277.4,7 1279.5,9 1279.7,9C1279.9,9 1280,7 1280,4.5L1280,0L1270.6,0L1275,4.5Z" style="fill:white;fill-opacity:0.05;fill-rule:nonzero;"/>
</svg>
