<?xml version="1.0" encoding="UTF-8" standalone="no"?>
<!DOCTYPE svg PUBLIC "-//W3C//DTD SVG 1.1//EN" "http://www.w3.org/Graphics/SVG/1.1/DTD/svg11.dtd">
<svg width="100%" height="100%" viewBox="0 0 1024 1024" version="1.1" xmlns="http://www.w3.org/2000/svg" xmlns:xlink="http://www.w3.org/1999/xlink" xml:space="preserve" xmlns:serif="http://www.serif.com/" style="fill-rule:evenodd;clip-rule:evenodd;stroke-linejoin:round;stroke-miterlimit:2;">
    <path id="path14" d="M341.374,512C341.374,417.747 417.764,341.32 512.02,341.32C606.277,341.32 682.708,417.747 682.708,512C682.708,606.253 606.277,682.68 512.02,682.68C417.764,682.68 341.374,606.253 341.374,512M249.104,512C249.104,657.203 366.811,774.906 512.02,774.906C657.229,774.906 774.937,657.203 774.937,512C774.937,366.797 657.229,249.094 512.02,249.094C366.811,249.094 249.104,366.797 249.104,512M723.903,238.67C723.903,238.678 723.903,238.686 723.903,238.694C723.903,272.399 751.639,300.134 785.345,300.134C819.052,300.134 846.788,272.399 846.788,238.694C846.788,204.999 819.067,177.268 785.37,177.254L785.345,177.254C751.654,177.27 723.932,204.98 723.903,238.67M305.164,928.756C255.244,926.482 228.111,918.168 210.08,911.143C186.175,901.837 169.118,890.753 151.185,872.845C133.252,854.938 122.152,837.898 112.886,813.994C105.857,795.972 97.542,768.831 95.273,718.914C92.79,664.945 92.295,648.733 92.295,512.004C92.295,375.275 92.831,359.109 95.273,305.095C97.546,255.177 105.923,228.09 112.886,210.014C122.193,186.11 133.277,169.054 151.185,151.122C169.094,133.19 186.134,122.089 210.08,112.824C228.103,105.796 255.244,97.481 305.164,95.212C359.135,92.729 375.348,92.234 512.02,92.234C648.693,92.234 664.922,92.77 718.938,95.212C768.858,97.485 795.946,105.861 814.022,112.824C837.928,122.089 854.984,133.214 872.917,151.122C890.85,169.03 901.91,186.11 911.216,210.014C918.245,228.037 926.56,255.177 928.83,305.095C931.312,359.109 931.808,375.275 931.808,512.004C931.808,648.733 931.312,664.9 928.83,718.914C926.556,768.831 918.2,795.963 911.216,813.994C901.91,837.898 890.826,854.954 872.917,872.845C855.009,890.737 837.928,901.837 814.022,911.143C795.999,918.172 768.858,926.486 718.938,928.756C664.967,931.238 648.755,931.733 512.02,931.733C375.286,931.733 359.119,931.238 305.164,928.756M300.925,3.101C246.417,5.583 209.171,14.225 176.643,26.882C142.956,39.952 114.439,57.487 85.942,85.938C57.445,114.389 39.954,142.95 26.883,176.636C14.226,209.183 5.583,246.407 3.101,300.913C0.578,355.504 0,372.957 0,512C0,651.043 0.578,668.496 3.101,723.087C5.583,777.597 14.226,814.817 26.883,847.364C39.954,881.029 57.449,909.623 85.942,938.062C114.435,966.5 142.956,984.011 176.643,997.118C209.232,1009.77 246.417,1018.42 300.925,1020.9C355.547,1023.38 372.972,1024 512.02,1024C651.069,1024 668.523,1023.42 723.116,1020.9C777.628,1018.42 814.85,1009.77 847.398,997.118C881.064,984.011 909.602,966.513 938.099,938.062C966.596,909.611 984.05,881.029 997.158,847.364C1009.82,814.817 1018.5,777.593 1020.94,723.087C1023.42,668.455 1024,651.043 1024,512C1024,372.957 1023.42,355.504 1020.94,300.913C1018.46,246.403 1009.82,209.162 997.158,176.636C984.05,142.971 966.551,114.434 938.099,85.938C909.647,57.442 881.064,39.952 847.439,26.882C814.85,14.225 777.624,5.542 723.157,3.101C668.564,0.618 651.11,0 512.061,0C373.013,0 355.547,0.578 300.925,3.101" style="fill:rgb(255,238,238);fill-rule:nonzero;"/>
</svg>
