<?xml version="1.0" encoding="UTF-8" standalone="no"?>
<!DOCTYPE svg PUBLIC "-//W3C//DTD SVG 1.1//EN" "http://www.w3.org/Graphics/SVG/1.1/DTD/svg11.dtd">
<svg width="100%" height="100%" viewBox="0 0 1024 1024" version="1.1" xmlns="http://www.w3.org/2000/svg" xmlns:xlink="http://www.w3.org/1999/xlink" xml:space="preserve" xmlns:serif="http://www.serif.com/" style="fill-rule:evenodd;clip-rule:evenodd;stroke-linejoin:round;stroke-miterlimit:2;">
    <path id="path2" d="M1024,194.419C986.342,211.105 945.888,222.38 903.362,227.475C946.746,201.5 980.029,160.279 995.722,111.212C955.134,135.295 910.171,152.793 862.323,162.173C823.988,121.406 769.42,95.88 708.988,95.88C592.996,95.88 498.922,189.954 498.922,306.037C498.928,322.125 500.743,338.161 504.333,353.843C329.669,345.047 174.936,261.389 71.3,134.303C53.263,165.421 42.888,201.5 42.888,239.923C42.888,312.8 80.006,377.157 136.332,414.814C102.973,413.752 70.346,404.737 41.175,388.521L41.175,391.227C41.175,493.012 113.558,577.933 209.707,597.236C191.665,602.104 173.058,604.56 154.371,604.542C141.101,604.552 127.86,603.314 114.821,600.844C141.564,684.274 219.134,745.067 311.089,746.69C239.156,803.063 148.554,836.661 50.149,836.661C33.193,836.661 16.461,835.669 0,833.728C92.994,893.397 203.394,928.12 322.002,928.12C708.492,928.12 919.778,608.012 919.778,330.39C919.778,321.371 919.551,312.26 919.145,303.241C960.186,273.565 995.813,236.631 1023.91,194.554L1024,194.419Z" style="fill:rgb(255,238,238);fill-rule:nonzero;"/>
</svg>
